<svg width="407" height="407" viewBox="0 0 407 407" fill="none" xmlns="http://www.w3.org/2000/svg">
<rect width="407" height="398" fill="#5E8EFF"/>
<path d="M407 122.896C394.519 117.66 380.499 115.808 366.327 118.176L190.496 147.552C188.546 147.878 187.348 149.87 187.975 151.745C199.574 186.483 234.678 207.626 270.751 201.6C270.767 201.685 275.421 225.831 282.873 239.389C288.902 250.358 299.043 263.756 302.012 267.607C302.562 268.321 302.931 269.186 303.079 270.075C313.976 335.282 342.588 356.877 407 352.149V398H0V0H407V122.896ZM291.668 317.451C290.468 315.11 287.38 314.435 285.36 316.121L232.678 360.104C230.818 361.658 230.752 364.501 232.606 366.061C266.253 394.354 304.728 392.132 340.135 371.043C342.887 369.404 342.538 365.329 339.642 363.961C331.627 360.177 318.488 353.333 310.843 345.938C302.909 338.264 295.338 324.609 291.668 317.451ZM407 290.923C384.445 290.499 375.347 278.627 362.786 239.389L357.884 222.723C356.782 218.976 353.877 216.09 350.39 214.332C341.929 210.066 335.047 203.398 330.322 197.001C328.657 194.747 330.078 191.665 332.842 191.199L391.863 181.244L391.925 181.354L407 178.836V290.923ZM322.699 50.0078C318.548 25.1598 295.067 8.37724 270.255 12.5225C245.442 16.668 228.692 40.1722 232.844 65.0205C236.995 89.8687 260.475 106.651 285.288 102.506C310.101 98.3603 326.851 74.8561 322.699 50.0078Z" fill="#437BFF"/>
<path d="M79 322V293.021H83.5903L83.9153 296.027C85.134 293.742 87.7745 292.419 90.8211 292.419C96.4677 292.419 100.205 296.468 100.205 302.68C100.205 308.853 96.7926 313.342 90.8211 313.342C87.8151 313.342 85.2152 312.18 83.9559 310.176V322H79ZM83.9966 302.921C83.9966 306.488 86.2308 308.933 89.6431 308.933C93.1366 308.933 95.2084 306.448 95.2084 302.921C95.2084 299.394 93.1366 296.868 89.6431 296.868C86.2308 296.868 83.9966 299.354 83.9966 302.921Z" fill="white"/>
<path d="M113.129 313.342C107.157 313.342 102.973 309.053 102.973 302.921C102.973 296.708 107.076 292.419 112.966 292.419C118.978 292.419 122.797 296.387 122.797 302.56V304.043L107.685 304.083C108.051 307.57 109.919 309.334 113.21 309.334C115.932 309.334 117.719 308.292 118.288 306.408H122.878C122.025 310.737 118.369 313.342 113.129 313.342ZM113.007 296.428C110.082 296.428 108.295 297.991 107.807 300.957H117.881C117.881 298.231 115.972 296.428 113.007 296.428Z" fill="white"/>
<path d="M139.356 292.94V297.47H137.528C133.953 297.47 131.719 299.354 131.719 303.201V312.821H126.763V293.061H131.435L131.719 295.947C132.572 293.983 134.481 292.66 137.162 292.66C137.853 292.66 138.544 292.74 139.356 292.94Z" fill="white"/>
<path d="M141.514 293.021H144.398V290.616C144.398 285.245 147.282 283 151.629 283C152.4 283 153.335 283.04 154.188 283.2V287.369H152.441C149.922 287.369 149.313 288.652 149.313 290.616V293.021H154.106V297.109H149.313V312.821H144.398V297.109H141.514V293.021Z" fill="white"/>
<path d="M155.497 302.881C155.497 296.708 160.006 292.459 166.221 292.459C172.436 292.459 176.945 296.708 176.945 302.881C176.945 309.053 172.436 313.302 166.221 313.302C160.006 313.302 155.497 309.053 155.497 302.881ZM160.452 302.881C160.452 306.488 162.809 308.933 166.221 308.933C169.633 308.933 171.989 306.488 171.989 302.881C171.989 299.273 169.633 296.828 166.221 296.828C162.809 296.828 160.452 299.273 160.452 302.881Z" fill="white"/>
<path d="M193.466 292.94V297.47H191.638C188.064 297.47 185.829 299.354 185.829 303.201V312.821H180.873V293.061H185.545L185.829 295.947C186.683 293.983 188.592 292.66 191.273 292.66C191.963 292.66 192.654 292.74 193.466 292.94Z" fill="white"/>
<path d="M201.777 312.821H196.821V293.021H201.371L201.777 295.345C202.792 293.702 204.824 292.419 207.708 292.419C210.754 292.419 212.867 293.902 213.923 296.187C214.939 293.902 217.295 292.419 220.341 292.419C225.216 292.419 227.897 295.305 227.897 299.875V312.821H222.982V301.157C222.982 298.311 221.438 296.828 219.082 296.828C216.685 296.828 214.857 298.351 214.857 301.598V312.821H209.901V301.117C209.901 298.351 208.398 296.868 206.042 296.868C203.686 296.868 201.777 298.392 201.777 301.598V312.821Z" fill="white"/>
<path d="M238.734 313.342C234.468 313.342 231.869 310.897 231.869 307.17C231.869 303.522 234.55 301.237 239.303 300.877L245.315 300.436V299.995C245.315 297.309 243.69 296.227 241.171 296.227C238.246 296.227 236.621 297.43 236.621 299.514H232.397C232.397 295.225 235.972 292.419 241.415 292.419C246.818 292.419 250.149 295.305 250.149 300.797V312.821H245.802L245.437 309.895C244.583 311.939 241.862 313.342 238.734 313.342ZM240.359 309.655C243.405 309.655 245.355 307.851 245.355 304.805V303.763L241.171 304.083C238.084 304.364 236.906 305.366 236.906 306.969C236.906 308.773 238.125 309.655 240.359 309.655Z" fill="white"/>
<path d="M259.973 312.821H255.017V293.021H259.608L260.014 295.586C261.273 293.582 263.711 292.419 266.432 292.419C271.47 292.419 274.069 295.506 274.069 300.636V312.821H269.113V301.799C269.113 298.472 267.448 296.868 264.889 296.868C261.842 296.868 259.973 298.953 259.973 302.159V312.821Z" fill="white"/>
<path d="M277.761 302.881C277.761 296.748 281.863 292.419 287.794 292.419C293.278 292.419 297.016 295.425 297.544 300.195H292.588C292.019 297.951 290.354 296.788 287.997 296.788C284.829 296.788 282.717 299.153 282.717 302.881C282.717 306.608 284.666 308.933 287.835 308.933C290.313 308.933 292.06 307.731 292.588 305.566H297.584C296.975 310.176 293.075 313.342 287.835 313.342C281.742 313.342 277.761 309.174 277.761 302.881Z" fill="white"/>
<path d="M310.251 313.342C304.279 313.342 300.095 309.053 300.095 302.921C300.095 296.708 304.198 292.419 310.088 292.419C316.1 292.419 319.919 296.387 319.919 302.56V304.043L304.807 304.083C305.173 307.57 307.041 309.334 310.332 309.334C313.054 309.334 314.841 308.292 315.41 306.408H320C319.147 310.737 315.491 313.342 310.251 313.342ZM310.129 296.428C307.204 296.428 305.417 297.991 304.929 300.957H315.003C315.003 298.231 313.094 296.428 310.129 296.428Z" fill="white"/>
<path d="M170.702 75C175.384 75 180.476 75.2049 184.902 75.9735C185.944 76.1546 186.619 77.1524 186.452 78.1971L182.74 101.401C182.585 102.371 181.748 103.085 180.765 103.085H171.505C157.329 103.085 150.108 109.772 147.701 125.285L145.4 139.55C145.204 140.766 146.143 141.868 147.375 141.868H172.436C173.669 141.868 174.609 142.975 174.409 144.192L170.765 166.404C170.606 167.371 169.771 168.081 168.791 168.081H142.722C141.738 168.081 140.901 168.795 140.746 169.766L124.433 272.314C124.278 273.285 123.441 274 122.458 274H95.483C94.2531 274 93.3146 272.9 93.5078 271.686L109.621 170.395C109.815 169.18 108.876 168.081 107.646 168.081H93.353C92.1198 168.081 91.1804 166.975 91.3791 165.758L95.0054 143.546C95.1633 142.579 95.9991 141.868 96.9793 141.868H112.298C113.28 141.868 114.116 141.156 114.273 140.187L116.676 125.285C122.025 92.1183 140.48 75 170.702 75Z" fill="white"/>
<path d="M227.47 141.868C228.699 141.868 229.637 142.966 229.445 144.18L209.215 272.312C209.062 273.284 208.224 274 207.24 274H179.999C178.77 274 177.831 272.9 178.024 271.686L192.511 180.621L198.953 143.526C199.12 142.568 199.951 141.868 200.924 141.868H227.47Z" fill="white"/>
<path d="M307.221 139.558C307.031 140.772 307.969 141.868 309.197 141.868H329.647C330.88 141.868 331.82 142.973 331.621 144.191L327.995 166.403C327.837 167.37 327.001 168.081 326.021 168.081H304.291C303.306 168.081 302.467 168.798 302.315 169.771L286.262 272.309C286.11 273.283 285.271 274 284.286 274H257.042C255.814 274 254.876 272.904 255.066 271.691L270.926 170.39C271.116 169.177 270.178 168.081 268.95 168.081H248.499C247.266 168.081 246.327 166.975 246.525 165.758L250.152 143.546C250.31 142.579 251.145 141.868 252.125 141.868H273.856C274.841 141.868 275.679 141.151 275.832 140.178L281.72 102.635C281.873 101.662 282.711 100.945 283.696 100.945H310.94C312.168 100.945 313.106 102.042 312.916 103.255L307.221 139.558Z" fill="white"/>
<path d="M224.461 76.3374C233.822 76.3374 240.776 83.2917 240.776 92.6532C240.776 104.155 230.078 115.121 218.31 115.121C208.949 115.121 201.995 107.899 201.995 98.8051C201.995 87.0363 212.426 76.3374 224.461 76.3374Z" fill="white"/>
<rect width="407" height="407" fill="#437BFF"/>
<path d="M120.571 342.203C120.106 342.591 120.098 343.308 120.55 343.711C149.663 369.647 183.359 367.457 214.078 348.292C215.437 347.444 215.259 345.412 213.8 344.75C207.65 341.958 194.74 335.629 187.597 328.72C180.374 321.734 173.514 308.786 170.877 303.496C170.29 302.319 168.748 301.981 167.739 302.824L120.571 342.203Z" fill="white"/>
<path d="M231.709 135.882C261.478 130.908 290.441 148.329 299.999 176.956V176.956C300.596 178.744 299.454 180.642 297.595 180.953L252.989 188.405L252.938 188.313L202.564 196.58C201.981 196.676 201.605 197.247 201.762 197.818C205.839 212.615 215.223 238.823 215.223 238.823C229.415 283.158 255.51 297.025 294.38 290.531C305.436 288.684 313.779 286.622 322.681 285.058C323.637 284.89 324.573 285.432 324.911 286.341V286.341C333.231 308.711 320.498 333.924 296.836 337.04C219.922 347.169 183.373 315.182 162.33 236.651C159.298 225.335 152.252 205.235 152.252 205.235C122.263 210.245 93.0801 192.669 83.4371 163.789V163.789C82.9162 162.23 83.9118 160.575 85.5332 160.304L231.709 135.882Z" fill="white"/>
<path d="M195.439 79.2113C198.89 99.8687 184.966 119.409 164.338 122.855C143.71 126.301 124.19 112.349 120.739 91.6916C117.287 71.0343 131.212 51.4943 151.84 48.048C172.467 44.6017 191.987 58.554 195.439 79.2113Z" fill="white"/>
</svg>
